# xmcd
#
# Track frame offsets:
#	180
#	12970
#	25580
#	39007
#	55432
#	71035
#	86462
#	103072
#	117147
#	130572
#	148952
#	161330
#	173785
#
# Disc length: 2466 seconds
#
# Revision: 0
# Processed by: cddbd v1.5.1PL0 Copyright (c) Steve Scherf et al.
# Submitted via: audiograbber 1.83.01
#
DISCID=a109a00d
DTITLE=Abel and Caim - Sucessos de Abel and Caim
DYEAR=1900
DGENRE=Sertanejo
TTITLE0=Orquestra da Natureza
TTITLE1=Põe Brasa
TTITLE2=Retrato de Papai Noel
TTITLE3=Santa Luzia
TTITLE4=Se Os Animais Falassem
TTITLE5=As Três Namoradas
TTITLE6=Mãe Amorosa
TTITLE7=Flash do Amor
TTITLE8=Os Amantes
TTITLE9=Diga Não às Drogas
TTITLE10=Você Vai Morrer Também
TTITLE11=Hoje Não Posso Ficar
TTITLE12=Taxista Assobiador
EXTD=
EXTT0=
EXTT1=
EXTT2=
EXTT3=
EXTT4=
EXTT5=
EXTT6=
EXTT7=
EXTT8=
EXTT9=
EXTT10=
EXTT11=
EXTT12=
PLAYORDER=
